<svg width="16" height="16" viewBox="0 0 16 16" fill="none" xmlns="http://www.w3.org/2000/svg">
<path d="M0 0.533344C0 0.391892 0.0561915 0.256234 0.156213 0.156213C0.256234 0.0561914 0.391892 0 0.533344 0H2.13338C2.25235 3.28662e-05 2.36789 0.0398415 2.46163 0.113095C2.55537 0.186349 2.62193 0.288842 2.65072 0.404275L3.08273 2.13338H15.467C15.5459 2.13342 15.6237 2.15097 15.695 2.18474C15.7663 2.21851 15.8292 2.26768 15.8792 2.32869C15.9292 2.3897 15.965 2.46104 15.9841 2.53757C16.0032 2.6141 16.0051 2.69391 15.9897 2.77126L14.923 8.1047C14.8996 8.221 14.8382 8.32621 14.7484 8.40368C14.6585 8.48114 14.5454 8.52645 14.427 8.53244L4.40329 9.03592L4.70943 10.6669H13.8669C14.0084 10.6669 14.1441 10.7231 14.2441 10.8231C14.3441 10.9231 14.4003 11.0588 14.4003 11.2002C14.4003 11.3417 14.3441 11.4773 14.2441 11.5774C14.1441 11.6774 14.0084 11.7336 13.8669 11.7336H4.26675C4.14241 11.7335 4.02202 11.6899 3.92638 11.6104C3.83075 11.531 3.76589 11.4206 3.74301 11.2984L2.14404 2.78086L1.71737 1.06669H0.533344C0.391892 1.06669 0.256234 1.0105 0.156213 0.910475C0.0561915 0.810454 0 0.674796 0 0.533344ZM3.30887 3.20006L4.20488 7.97776L13.9587 7.48815L14.8163 3.20006H3.30887ZM5.33344 11.7336C4.76763 11.7336 4.225 11.9583 3.82492 12.3584C3.42483 12.7585 3.20006 13.3011 3.20006 13.8669C3.20006 14.4328 3.42483 14.9754 3.82492 15.3755C4.225 15.7756 4.76763 16.0003 5.33344 16.0003C5.89925 16.0003 6.44188 15.7756 6.84197 15.3755C7.24205 14.9754 7.46682 14.4328 7.46682 13.8669C7.46682 13.3011 7.24205 12.7585 6.84197 12.3584C6.44188 11.9583 5.89925 11.7336 5.33344 11.7336ZM12.8003 11.7336C12.2345 11.7336 11.6918 11.9583 11.2917 12.3584C10.8916 12.7585 10.6669 13.3011 10.6669 13.8669C10.6669 14.4328 10.8916 14.9754 11.2917 15.3755C11.6918 15.7756 12.2345 16.0003 12.8003 16.0003C13.3661 16.0003 13.9087 15.7756 14.3088 15.3755C14.7089 14.9754 14.9336 14.4328 14.9336 13.8669C14.9336 13.3011 14.7089 12.7585 14.3088 12.3584C13.9087 11.9583 13.3661 11.7336 12.8003 11.7336ZM5.33344 12.8003C5.61634 12.8003 5.88766 12.9126 6.0877 13.1127C6.28775 13.3127 6.40013 13.584 6.40013 13.8669C6.40013 14.1498 6.28775 14.4212 6.0877 14.6212C5.88766 14.8213 5.61634 14.9336 5.33344 14.9336C5.05054 14.9336 4.77922 14.8213 4.57918 14.6212C4.37914 14.4212 4.26675 14.1498 4.26675 13.8669C4.26675 13.584 4.37914 13.3127 4.57918 13.1127C4.77922 12.9126 5.05054 12.8003 5.33344 12.8003ZM12.8003 12.8003C13.0832 12.8003 13.3545 12.9126 13.5545 13.1127C13.7546 13.3127 13.8669 13.584 13.8669 13.8669C13.8669 14.1498 13.7546 14.4212 13.5545 14.6212C13.3545 14.8213 13.0832 14.9336 12.8003 14.9336C12.5174 14.9336 12.246 14.8213 12.046 14.6212C11.846 14.4212 11.7336 14.1498 11.7336 13.8669C11.7336 13.584 11.846 13.3127 12.046 13.1127C12.246 12.9126 12.5174 12.8003 12.8003 12.8003Z" fill="#44FF44"/>
</svg>
