<svg width="16" height="16" viewBox="0 0 16 16" fill="currentColor" xmlns="http://www.w3.org/2000/svg">
<path d="M16 8.49245H8.21517L2.71033 13.9973C3.83408 14.9887 5.21348 15.6448 6.69167 15.8911C8.16985 16.1374 9.68748 15.9639 11.072 15.3904C12.4564 14.8169 13.6522 13.8664 14.5232 12.6469C15.3942 11.4275 15.9055 9.98809 15.999 8.49245H16ZM2.00271 13.2887C1.01131 12.1649 0.35515 10.7855 0.108873 9.30733C-0.137405 7.82915 0.0360807 6.31152 0.609598 4.92705C1.18312 3.54257 2.13365 2.34683 3.35308 1.47582C4.57251 0.604807 6.0119 0.0934818 7.50754 0V7.78483L2.00271 13.2897V13.2887ZM8.50842 0V7.49158H16C15.878 5.54465 15.0496 3.70921 13.6702 2.32982C12.2908 0.950441 10.4553 0.121989 8.50842 0Z" fill="black"/>
</svg>
