<svg width="15" height="8" viewBox="0 0 15 8" fill="none" xmlns="http://www.w3.org/2000/svg">
<path fill-rule="evenodd" clip-rule="evenodd" d="M7.07385 0.158178C7.1273 0.108037 7.1908 0.0682566 7.26071 0.0411138C7.33061 0.0139711 7.40556 0 7.48125 0C7.55694 0 7.63188 0.0139711 7.70179 0.0411138C7.7717 0.0682566 7.8352 0.108037 7.88865 0.158178L14.7937 6.61909C14.9018 6.72019 14.9625 6.85731 14.9625 7.00028C14.9625 7.14326 14.9018 7.28038 14.7937 7.38148C14.6857 7.48257 14.5391 7.53937 14.3863 7.53937C14.2335 7.53937 14.087 7.48257 13.9789 7.38148L7.48125 1.30068L0.983552 7.38148C0.875503 7.48257 0.728956 7.53937 0.576151 7.53937C0.423347 7.53937 0.2768 7.48257 0.168751 7.38148C0.0607015 7.28038 0 7.14326 0 7.00028C0 6.85731 0.0607015 6.72019 0.168751 6.61909L7.07385 0.158178Z" fill="#00B712"/>
</svg>
