<svg width="16" height="16" viewBox="0 0 16 16" fill="none" xmlns="http://www.w3.org/2000/svg">
<g clip-path="url(#clip0_4943_282)">
<path d="M5.97715 2.57143L6.46858 1.30286C6.55145 1.08807 6.69727 0.903324 6.88692 0.772812C7.07657 0.642299 7.30121 0.572106 7.53143 0.571426H8.46858C8.69879 0.572106 8.92344 0.642299 9.11309 0.772812C9.30274 0.903324 9.44855 1.08807 9.53143 1.30286L10.0229 2.57143L11.6914 3.53143L13.04 3.32571C13.2646 3.29523 13.4931 3.3322 13.6966 3.43191C13.9001 3.53162 14.0693 3.68958 14.1829 3.88571L14.64 4.68571C14.7571 4.88497 14.8111 5.11506 14.7948 5.34562C14.7785 5.57618 14.6926 5.79638 14.5486 5.97714L13.7143 7.04V8.96L14.5714 10.0229C14.7155 10.2036 14.8013 10.4238 14.8176 10.6544C14.834 10.8849 14.78 11.115 14.6629 11.3143L14.2057 12.1143C14.0922 12.3104 13.9229 12.4684 13.7195 12.5681C13.516 12.6678 13.2874 12.7048 13.0629 12.6743L11.7143 12.4686L10.0457 13.4286L9.55429 14.6971C9.47141 14.9119 9.3256 15.0967 9.13595 15.2272C8.9463 15.3577 8.72165 15.4279 8.49143 15.4286H7.53143C7.30121 15.4279 7.07657 15.3577 6.88692 15.2272C6.69727 15.0967 6.55145 14.9119 6.46858 14.6971L5.97715 13.4286L4.30858 12.4686L2.96 12.6743C2.73545 12.7048 2.50691 12.6678 2.30341 12.5681C2.09992 12.4684 1.93066 12.3104 1.81715 12.1143L1.36 11.3143C1.24286 11.115 1.18889 10.8849 1.20522 10.6544C1.22154 10.4238 1.30739 10.2036 1.45143 10.0229L2.28572 8.96V7.04L1.42858 5.97714C1.28453 5.79638 1.19868 5.57618 1.18236 5.34562C1.16604 5.11506 1.22001 4.88497 1.33715 4.68571L1.79429 3.88571C1.9078 3.68958 2.07706 3.53162 2.28056 3.43191C2.48405 3.3322 2.71259 3.29523 2.93715 3.32571L4.28572 3.53143L5.97715 2.57143ZM5.71429 8C5.71429 8.45207 5.84834 8.89399 6.0995 9.26987C6.35066 9.64576 6.70764 9.93872 7.1253 10.1117C7.54296 10.2847 8.00254 10.33 8.44592 10.2418C8.88931 10.1536 9.29658 9.93591 9.61625 9.61624C9.93591 9.29658 10.1536 8.8893 10.2418 8.44592C10.33 8.00253 10.2847 7.54295 10.1117 7.12529C9.93873 6.70763 9.64576 6.35065 9.26988 6.0995C8.89399 5.84834 8.45208 5.71428 8 5.71428C7.39379 5.71428 6.81241 5.9551 6.38376 6.38375C5.95511 6.81241 5.71429 7.39379 5.71429 8V8Z" stroke="#555555" stroke-width="1.71429" stroke-linecap="round" stroke-linejoin="round"/>
</g>
<defs>
<clipPath id="clip0_4943_282">
<rect width="16" height="16" fill="white"/>
</clipPath>
</defs>
</svg>
