<svg width="16" height="16" viewBox="0 0 16 16" fill="none" xmlns="http://www.w3.org/2000/svg">
<path opacity="0.4" d="M3.55556 5.33333H12.4444V10.6667H3.55556V5.33333ZM14.6667 8C14.6667 8.73639 15.2636 9.33333 16 9.33333V12C16 12.7364 15.4031 13.3333 14.6667 13.3333H1.33333C0.596944 13.3333 0 12.7364 0 12V9.33333C0.736389 9.33333 1.33333 8.73639 1.33333 8C1.33333 7.26361 0.736389 6.66667 0 6.66667V4C0 3.26361 0.596944 2.66667 1.33333 2.66667H14.6667C15.4031 2.66667 16 3.26361 16 4V6.66667C15.2636 6.66667 14.6667 7.26361 14.6667 8ZM13.3333 5.11111C13.3333 4.74292 13.0349 4.44445 12.6667 4.44445H3.33333C2.96514 4.44445 2.66667 4.74292 2.66667 5.11111V10.8889C2.66667 11.2571 2.96514 11.5556 3.33333 11.5556H12.6667C13.0349 11.5556 13.3333 11.2571 13.3333 10.8889V5.11111Z" fill="#555555"/>
</svg>
