<svg width="35" height="25" viewBox="0 0 35 25" fill="none" xmlns="http://www.w3.org/2000/svg">
<path d="M20.125 0H14.875C13.9087 0 13.125 0.783672 13.125 1.75V7C13.125 7.96633 13.9087 8.75 14.875 8.75H20.125C21.0913 8.75 21.875 7.96633 21.875 7V1.75C21.875 0.783672 21.0913 0 20.125 0ZM11.375 3.0625H6.74023C6.2207 1.78062 4.96781 0.875 3.5 0.875C1.56734 0.875 0 2.4418 0 4.375C0 6.3082 1.56734 7.875 3.5 7.875C4.96781 7.875 6.2207 6.96938 6.74023 5.6875H11.1005C8.07242 7.46594 5.85813 10.4628 5.11 14H7.81156C8.42953 11.7245 9.82242 9.77758 11.6966 8.44594C11.4942 8.00406 11.375 7.5168 11.375 7V3.0625ZM8.75 15.75H3.5C2.53367 15.75 1.75 16.5337 1.75 17.5V22.75C1.75 23.7163 2.53367 24.5 3.5 24.5H8.75C9.71633 24.5 10.5 23.7163 10.5 22.75V17.5C10.5 16.5337 9.71633 15.75 8.75 15.75ZM31.5 0.875C30.0322 0.875 28.7793 1.78062 28.2598 3.0625H23.625V7C23.625 7.5168 23.5052 8.00406 23.3034 8.44594C25.1776 9.77758 26.5705 11.7245 27.1884 14H29.89C29.1419 10.4628 26.9276 7.46594 23.8995 5.6875H28.2598C28.7793 6.96938 30.0322 7.875 31.5 7.875C33.4327 7.875 35 6.3082 35 4.375C35 2.4418 33.4327 0.875 31.5 0.875ZM31.5 15.75H26.25C25.2837 15.75 24.5 16.5337 24.5 17.5V22.75C24.5 23.7163 25.2837 24.5 26.25 24.5H31.5C32.4663 24.5 33.25 23.7163 33.25 22.75V17.5C33.25 16.5337 32.4663 15.75 31.5 15.75Z" fill="#696CFF"/>
</svg>
